<?xml version="1.0" encoding="UTF-8"?>
<svg id="image_svg" data-name="image svg" xmlns="http://www.w3.org/2000/svg" xmlns:xlink="http://www.w3.org/1999/xlink" viewBox="0 0 438.66 453.94">
  <defs>
    <style>
      .cls-1 {
        filter: url(#drop-shadow-1);
        opacity: .15;
      }

      .cls-2 {
        fill: #fff;
        stroke: #618577;
        stroke-miterlimit: 10;
      }
    </style>
    <filter id="drop-shadow-1" filterUnits="userSpaceOnUse">
      <feOffset dx="7" dy="7"/>
      <feGaussianBlur result="blur" stdDeviation="5"/>
      <feFlood flood-color="#000" flood-opacity="1"/>
      <feComposite in2="blur" operator="in"/>
      <feComposite in="SourceGraphic"/>
    </filter>
  </defs>
  <g class="cls-1">
    <path class="cls-2" d="m270.12.68c-.57.07-2.05.46-3.29.81-1.95.6-2.69.64-5.84.35-9.59-.85-28.17-1.1-33.52-.42-4,.5-7.43.53-8,.04-.5-.42-29.13-.14-35.71.35-2.51.21-8.53.35-13.31.39-6.55,0-8.81.11-9.06.42-.18.25-.71,2.09-1.13,4.07-.6,2.8-.74,4.18-.57,6.05.28,2.76-.35,9.73-1.03,11.04-.25.5-.67,1.24-.92,1.66-.71,1.13-.04,1.7,2.05,1.7,1.45,0,1.66.11,1.77.78.07.46-.39,1.84-.99,3.08-.81,1.63-1.17,2.9-1.24,4.49-.11,1.24-.25,3.04-.35,4.03s-.04,2.44.21,3.26c.39,1.42.32,1.73-1.06,5.2-1.13,2.94-1.38,3.89-1.13,4.6.21.46.53.96.74,1.1s.28.53.18.88c-.11.39.11,1.38.53,2.27,1.42,3.19,1.45,3.22.88,8.14-.53,4.6-.53,4.74.21,7.5.71,2.55.74,3.19.46,7.22-.18,2.44-.28,8.81-.25,14.16.07,7.75.18,10.05.64,11.29.5,1.45.5,1.63-.07,2.27-.57.6-.64,1.73-.78,10.65-.07,5.45-.11,11.54-.07,13.48.07,3.19,0,3.65-.64,4.21-.85.78-.92,1.63-.25,2.97.57,1.17,1.06,5.63.71,6.94-.18.74-.42.92-1.24.92-1.56,0-1.42,1.38.25,2.3l1.31.71-.04,7.26c-.04,4-.04,12.81-.07,19.64,0,6.8-.04,13.98-.07,15.93-.07,9.02,0,10.62.64,12.67.6,2.02.6,2.19,0,3.86-.53,1.49-.57,2.02-.21,3.68.32,1.56.32,2.19-.07,3.08-.71,1.7-.67,39.78.04,41.9.39,1.24.42,1.88.11,3.36-.35,1.56-.99,21.52-.81,24.7.04.5.04,4.39,0,8.64-.04,5.73-.18,8.07-.53,8.92-.28.64-.5,1.88-.5,2.76,0,1.24.18,1.7.78,2.16.81.53.81.6.71,8.03-.04,4.11-.18,7.61-.28,7.79-.57.88-4.39,2.34-6.83,2.58s-4.39.99-5.63,2.19c-.25.25-.64.46-.81.46s-1.34.6-2.58,1.38c-1.42.85-3.54,1.7-5.73,2.27-3.86,1.03-4.74,1.66-5.06,3.68-.18,1.1-.46,1.49-1.52,2.05-1.03.57-1.49.6-2.3.32-1.31-.5-4.71.71-7.15,2.48-1.88,1.38-7.54,4.18-8.25,4.07-1.03-.11-1.34.07-1.34.78s.14.74,1.24.57c.92-.14,1.24-.07,1.24.32,0,.28-.14.5-.35.5-.57,0-1.49,2.55-1.06,2.97.18.18.35.71.35,1.13,0,1.06.74,1.2,6.83,1.2h5.24l-.18,5.95c-.07,3.26-.25,6.72-.39,7.72l-.25,1.8,1.13.25c.64.11,1.91.21,2.87.21h1.73v14.79c0,8.18.18,17.27.35,20.28.25,3.5.28,7.29.07,10.58-.18,2.83-.18,5.49-.04,5.91.18.46.32,2.44.35,4.46.04,2.87-.11,3.93-.57,4.85-.53.99-.53,1.31-.18,1.91.53.85.74,7.01.35,10.3-.14,1.17-.14,2.3.04,2.48.14.21.25.92.25,1.59-.04.67.07,2.62.25,4.32l.28,3.11h17.94v-6.72h1.06c.71,0,1.06-.18,1.06-.53,0-.28-.14-.53-.35-.53-.18,0-.35-.25-.35-.53,0-.32-.25-.64-.53-.74-.71-.28-.67-1.06.04-1.34.42-.18.46-.35.18-.67-.28-.35-.25-.6.07-.92.32-.35.28-.53-.18-.88-.78-.57-.81-1.49-.11-1.77.28-.11.53-.42.53-.71,0-.25-.25-.57-.53-.71-.67-.25-.67-1.49,0-1.77.39-.14.5-.64.39-2.12-.18-1.95-.14-1.98,1.06-2.55,1.84-.88,3.43-2.58,3.08-3.29-.46-.92-.14-28.91.35-31.32.39-2.02.53-2.19,3.93-5.31,1.91-1.77,3.93-3.72,4.42-4.28.5-.6,1.84-1.95,2.97-3.01,5.95-5.59,7.61-7.5,10.51-11.79l1.13-1.66,6.41.07,6.44.11v8.49c.04,4.67.21,10.09.39,12.03.28,2.37.28,5.59.07,9.73-.18,3.4-.25,8.56-.14,11.5.21,5.73-.25,21.48-.67,22.69-.14.5-.04.96.42,1.38.35.35.57,1.03.53,1.49-.25,1.73.21,1.88,7.01,1.88,5.52,0,6.48-.07,7.89-.71l1.63-.71-.07-3.72c0-2.02.07-3.79.21-3.93s.25-1.95.25-4c0-4.11.42-5.45,1.7-5.63,1.59-.25,1.63-.32,1.38-24.7-.21-20.07-.14-23.15.28-23.5.28-.25.53-.74.53-1.1,0-.64.71-.67,22.05-.67h22.01l2.41,2.58c1.31,1.38,5.91,6.94,10.26,12.28,11.4,14.12,12.32,15.22,12.88,15.22.28,0,.46.21.42.42-.07.46.53,2.09,1.13,3.11.71,1.2.74,1.59.39,4.39-.6,4.35-.88,18.58-.39,19.18.25.32.25.5.04.5-.42,0-.57,6.19-.18,6.83.14.25.28.81.28,1.31,0,.71.25.96,1.17,1.24.81.25,1.13.53,1.13,1.1,0,.53.28.85.99,1.06.71.18.81.28.35.39-.85.21-.81.85.07,1.8s1.7.99,2.05.14c.18-.46.28-.39.42.46.14.88.35,1.06,1.24,1.06,1.06,0,1.06-.04,1.34-2.48.35-3.47.53-3.61.57-.53.04,2.58.07,2.65,1.1,3.11,1.13.53,1.77.32,1.77-.53,0-.42.25-.5,1.24-.32.88.18,1.56.07,2.37-.39s1.13-.53,1.24-.21c.11.25.46.46.81.46,1.1,0,1.42-.81,1.17-2.87-.32-2.51-.28-10.19.04-26.68.14-7.4.32-16.56.35-20.35.07-3.79.21-7.18.35-7.5s.14-.78,0-1.03c-.18-.28-.11-.32.18-.14.32.18.46,1.42.46,4.03,0,2.05.07,7.01.14,11.01s-.07,12.6-.32,19.11c-.53,13.52-.21,20.95.88,21.16,1.59.32,2.02-2.51,1.38-9.77-.21-2.8.04-3.93.67-2.9.14.25.53.35.85.25.35-.14.57-.04.57.28,0,.28.32.53.67.53,1.06,0,1.24.64.57,2.12-.71,1.56-.53,2.48.5,2.48.71,0,.99-.5,3.08-5.31.99-2.19,1.1-2.73.71-3.11-.39-.42-.39-.67.07-1.56.5-1.03.5-1.13-.21-1.66l-.74-.57.81-1.56c.5-.96.92-1.42,1.06-1.17s.71.42,1.31.42c.99,0,1.03.04,1.03,1.73s.64,2.83,1.17,2.27c.14-.11.25-1.27.25-2.55,0-1.66.18-2.62.64-3.22.67-.96.78-5.24.46-18.58-.14-6.19.14-9.48.99-11.08.5-.92.5-2.09,0-2.27-.25-.07-.11-.74.42-1.77.74-1.59.78-1.7.21-2.34-.32-.35-.6-.85-.6-1.06s-.32-.57-.71-.78c-.88-.46-.96-2.23-.14-4.25.46-1.17.5-1.7.18-3.01-.25-.96-.42-6.12-.46-13.77l-.04-12.25.92-.85c.53-.5.96-1.17.96-1.56,0-.35.42-1.49.92-2.51q.96-1.88.35-3.79c-.46-1.49-.53-2.55-.35-5.1l.25-3.26,1.52-1.45c1.38-1.31,1.59-1.73,1.91-3.79.18-1.27.35-4,.35-6.09,0-3.57-.04-3.82-.78-4.25-.53-.25-3.5-.53-8.07-.67-4-.14-8.53-.35-10.09-.5-3.86-.32-29.76-.85-58.04-1.2-29.16-.39-53.97-1.24-59.21-2.02l-1.56-.21.04-11.4c.04-6.23-.04-22.26-.14-35.6-.28-39.28-.28-77.29-.04-82.99.42-9.38.5-43.11.11-43.88-.25-.42-.46-4.92-.57-11.15-.18-12.53-.21-11.01.39-26.72.42-11.01.5-15.57.21-19.64-.04-.5-.04-2.02,0-3.43l.07-2.55,1.7-1.27c.92-.71,3.26-2.44,5.24-3.86s4.03-2.9,4.6-3.33c.57-.46,3.33-2.34,6.16-4.18s5.31-3.61,5.52-3.89c.25-.28,1.77-1.45,3.4-2.55,7.47-5.03,13.34-8.88,14.97-9.8,2.51-1.45,5.45-3.65,6.97-5.17.71-.74,1.84-1.63,2.48-1.95s1.8-1.13,2.58-1.8c4.35-3.72,5.24-4.35,6.44-4.67.74-.21,5.41-.39,10.37-.42,4.95,0,10.37-.07,12-.07,2.87-.07,3.01-.04,3.68.92.67.88.71,1.13.32,2.55-.25.88-.42,3.86-.46,6.65,0,4.95-.28,6.83-.81,5.98-.14-.25-.14-.6-.04-.81.32-.5-.85-1.73-1.66-1.73-.67,0-4.18,2.76-4.18,3.26,0,.14.88.81,1.95,1.52,1.91,1.2,2.55,2.3,1.34,2.3-4.32,0-14.97.35-15.57.53-1.2.39-1.03.88.96,2.83.99.99,2.37,2.65,3.11,3.72.71,1.06,2.05,2.76,2.97,3.79,2.23,2.41,2.23,3.29.11,5.63-.88.96-2.23,2.76-3.01,4.03-1.45,2.44-5.66,6.23-9.91,8.92-2.16,1.34-3.01,2.44-4.78,6.12-.64,1.34-1.88,2.94-3.4,4.42-1.31,1.27-2.87,3.26-3.54,4.42-.64,1.17-1.63,2.83-2.19,3.68-.81,1.2-1.03,1.88-.96,3.01.04.78.07,2.41.04,3.57-.07,2.55.67,6.19,1.27,6.44.25.11.46.46.46.81,0,1.24.46,1.84,1.91,2.44l1.42.64-2.23,1.73c-2.55,1.98-5.73,6.09-6.58,8.56-.32.92-.74,2.02-.88,2.44-.18.42-1.59,1.66-3.11,2.73-2.12,1.49-3.19,2.55-4.28,4.21-1.31,2.02-1.45,2.48-1.45,4.46s.11,2.27.71,2.41c.78.21.92.64.35.99-.18.11-.35.46-.35.71,0,.42.35.46,1.63.28,1.31-.18,1.8-.07,2.62.57,1.31.96,1.45.96,2.65-.32.81-.85,1.1-.96,1.66-.67q.71.39-.04,1.17c-.42.42-.74.88-.74.99,0,.6-3.15,4.92-4.67,6.37-1.42,1.38-1.7,1.88-1.7,2.94,0,.78.28,1.66.71,2.19.39.5.71,1.13.71,1.38,0,.28.35.5.81.5s1.13.25,1.52.53q.92.71,2.55-.88c1.13-1.13,1.7-1.42,2.76-1.42s1.63-.28,3.01-1.59c.92-.88,1.84-1.59,2.02-1.59.14,0,.28.99.28,2.19,0,1.98.57,4.28,1.63,6.51.32.67.28,1.73-.18,7.57-.07.88-.25,1.84-.39,2.19-.21.46.14.71,1.73,1.31,3.01,1.13,4.85,2.12,6.12,3.33,1.03.99,1.24,1.06,2.19.71.99-.39,1.06-.35,1.24.53.11.53.42,1.73.71,2.73.28.96.57,2.41.67,3.19.07.78.46,2.51.85,3.89,1.1,3.65,1.45,6.44,1.7,12.74.18,4.53.11,6.09-.32,7.79-.32,1.17-.67,3.29-.81,4.71-.32,3.47-.78,3.96-4.71,5.17l-3.22.99v3.86c0,2.62-.25,4.92-.74,7.15-.39,1.77-.67,4.11-.64,5.17.11,1.7,0,1.98-.85,2.65-1.24.99-1.24,2.09.04,2.69l.96.42-.78.39c-1.03.46-1.03,1.2,0,1.52.42.14,1.17.53,1.63.92,1.24.96,3.26.11,3.93-1.63.18-.5.46.25,1.06,2.65.42,1.84,1.06,3.61,1.38,4s.67,1.66.81,3.19c.42,4.14.67,5.31,1.42,6.12.64.71.67.92.28,1.84s-.35,1.24.25,2.23c1.17,1.98,1.2,3.15.28,5.8-.96,2.73-1.06,4-.5,7.04.46,2.51,1.95,4.6,3.61,5.06.74.21,2.62,1.8,5.38,4.53,3.72,3.72,4.53,4.32,6.48,5.03,6.94,2.55,17.41,3.36,19.85,1.56,2.05-1.52,1.03-4-2.55-6.05-1.03-.6-2.37-1.56-3.01-2.12-.64-.6-1.31-1.1-1.49-1.1s-.5-.28-.67-.64c-.32-.64,0-.67,6.48-.71,8.67-.04,8.71-.07,8.71-2.02,0-1.7-.28-1.95-5.31-4.71-2.27-1.24-2.94-1.45-4.46-1.38s-1.98-.07-3.04-.99c-.67-.6-1.49-1.45-1.8-1.95s-1.06-1.45-1.66-2.12-1.49-1.63-1.91-2.12-1.31-1.63-1.95-2.58-1.73-1.98-2.51-2.37-1.59-1.06-1.84-1.52c-.64-1.2-.46-6.37.32-7.75.42-.81.67-2.37.85-5.06.25-4.57,1.49-8.78,3.22-10.9.85-1.1,1.13-1.88,1.34-3.72.42-3.57.92-5.73,1.73-7.5.39-.88.74-2.12.74-2.76,0-1.34,1.31-2.34,3.54-2.69.74-.11,1.45-.35,1.59-.53.35-.6-.92-1.45-2.16-1.45-.85,0-1.49-.28-2.02-.85-.57-.6-1.34-.92-2.83-1.1-1.1-.14-2.12-.39-2.23-.57s.25-1.03.74-1.88c.78-1.31,1.03-2.62,1.8-8.56.74-6.05.88-8.25.81-15.54-.07-8.99.07-10.55,1.1-10.37.32.07.81-.07,1.1-.32.28-.21.99-.46,1.56-.53.85-.07,1.34-.53,2.51-2.3l1.49-2.19.21-4.35c.11-2.41.32-5.38.42-6.62.21-2.3-.88-9.41-1.73-11.25-.21-.46-.25-2.02-.11-3.89.11-1.7.28-4.39.35-5.95.18-4.6,2.37-8.03,6.69-10.44,1.1-.64,2.19-1.42,2.37-1.77.57-1.06.39-2.83-.35-3.79-.39-.5-.71-1.2-.71-1.52,0-.35-.25-1.24-.57-1.98-.32-.78-.71-2.58-.85-4.03-.21-1.77-.99-4.57-2.34-8.32-1.1-3.11-2.05-6.23-2.09-6.9-.11-2.05-1.27-9.34-1.56-9.91-.42-.78-1.42-4.32-1.77-6.26-.28-1.42-.21-1.88.42-2.97.67-1.17.88-1.31,1.73-1.13.6.11,1.24,0,1.56-.28.35-.28,1.17-.5,1.88-.5,3.96-.07,4.46-.18,5.63-1.24.64-.6,1.45-1.06,1.8-1.06s.92-.32,1.27-.71.92-.71,1.24-.71c.35,0,.81-.21,1.03-.5.42-.5,1.27-.74,4.28-1.2,1.56-.25,2.05-.74,2.62-2.65.11-.32.42-.6.74-.6.42,0,.53.5.53,2.44,0,2.44,0,2.48,1.42,3.57l1.42,1.13v2.94c0,3.15.39,3.96,1.73,3.54.5-.14.88-.85,1.27-2.23.32-1.1.74-2.65.99-3.43.21-.78.74-1.98,1.17-2.65,1.34-2.09,3.33-11.01,3.33-15.01,0-.64-.6-1.8-1.63-3.15-1.84-2.48-3.11-4.85-3.5-6.51-.11-.64-.5-1.38-.81-1.59-.35-.25-.88-.88-1.24-1.45-.35-.53-.85-.96-1.13-.96-.25,0-.71-.28-.96-.64-.25-.39-1.03-.85-1.73-1.1-.71-.21-1.66-.81-2.09-1.27-.5-.53-1.24-.88-1.77-.88s-1.49-.25-2.12-.57c-.96-.5-1.84-.57-5.27-.35-2.27.11-5.41.35-7.01.53-3.79.42-9.27,2.27-10.76,3.61-1.17,1.03-2.23,1.31-2.62.67-.11-.21-.53-.35-.88-.35-.67,0-.67-.32-.53-7.82.11-6.41.21-7.93.67-8.42.32-.32.46-.92.35-1.34-.11-.39-.07-.81.11-.92.14-.11,3.86-.21,8.25-.28,7.47-.07,10.72-.32,11.22-.81.11-.11.04-.42-.21-.71-.57-.71-.14-11.43.53-12.49s.64-1.52-.18-2.37c-.39-.42-1.17-2.05-1.8-3.65-.64-1.73-1.63-3.47-2.44-4.42l-1.38-1.52-6.65-.04c-6.9,0-8.74-.21-10.65-1.06-1.06-.46-2.94-.57-5.24-.25Zm-59.28,26.9c0,.18-.57.67-1.27,1.17-.67.5-2.12,1.59-3.26,2.44-1.1.85-2.87,1.95-3.89,2.41-1.03.5-2.05,1.2-2.3,1.56-.25.39-1.77,1.45-3.4,2.34-1.63.92-3.43,2.12-4,2.65-.92.85-3.19,2.41-3.5,2.41-.39,0-.07-12,.35-13.24l.46-1.38,6.97.18c4.88.14,7.64.07,9.24-.25,2.69-.53,4.6-.64,4.6-.28Zm-50.36,341.38c.14.18-.11.6-.6.96-1.06.85-5.56,3.54-5.84,3.54-.11,0-.18-.96-.14-2.12.07-1.52.25-2.27.64-2.51.64-.39,5.52-.28,5.95.14Zm124.01,3.08c.57.32.67.78.67,3.19,0,1.66-.14,2.83-.35,2.83-.18,0-.35-.18-.35-.35,0-.21-.35-.35-.81-.35-.67,0-1.06-.46-2.02-2.34-.67-1.27-1.34-2.41-1.49-2.48-1.27-.81,2.9-1.24,4.35-.5Z"/>
  </g>
</svg>